<?xml version="1.0" encoding="UTF-8" standalone="no"?>
<svg
   xmlns:dc="http://purl.org/dc/elements/1.1/"
   xmlns:cc="http://creativecommons.org/ns#"
   xmlns:rdf="http://www.w3.org/1999/02/22-rdf-syntax-ns#"
   xmlns:svg="http://www.w3.org/2000/svg"
   xmlns="http://www.w3.org/2000/svg"
   version="1.1"
   x="0px"
   y="0px"
   width="128"
   height="128"
   viewBox="0, 0, 128, 128"
   id="svg7344">
  <metadata
     id="metadata7371">
    <rdf:RDF>
      <cc:Work
         rdf:about="">
        <dc:format>image/svg+xml</dc:format>
        <dc:type
           rdf:resource="http://purl.org/dc/dcmitype/StillImage" />
        <dc:title></dc:title>
      </cc:Work>
    </rdf:RDF>
  </metadata>
  <g
     id="Background">
    <rect
       x="0"
       y="0"
       width="128"
       height="128"
       fill="#000000"
       fill-opacity="0"
       id="rect7347" />
  </g>
  <g
     id="g7349">
    <path
       d="M18.093,6 L109.907,6 C116.561,6 122,11.439 122,18.093 L122,109.905 C122,116.561 116.561,122 109.907,122 L18.093,122 C11.439,122 6,116.561 6,109.905 L6,18.093 C6,11.439 11.439,6 18.093,6"
       fill="#727272"
       id="path7351" />
    <g
       id="g4306"
       transform="matrix(0.121,0,0,0.121,-2.9903486,1.1470468)">
      <path
         id="path4308"
         d="m 931.5,40.096 -275.011,0 c 0,209.966 168.865,381.076 376.235,381.076 l 0,-278.776 C 1033.66,85.541 987.721,38.986 931.5,40.096 Z"
         style="fill:#6e6e6e" />
    </g>
    <g
       id="g4310"
       transform="matrix(0.121,0,0,0.121,-2.9903486,1.1470468)">
      <path
         id="path4312"
         d="m 937.046,40.443 -257.952,0 c 0,195.212 158.391,353.603 353.776,353.603 l 0,-258.052 c 0,-52.63 -43.091,-95.724 -95.824,-95.551 z"
         style="fill:#ececec" />
    </g>
    <g
       id="g4314"
       transform="matrix(0.121,0,0,0.121,-2.9903486,1.1470468)">
      <path
         id="path4316"
         d="m 871.288,106.146 c 0,-6.527 2.185,-11.9 6.553,-16.118 4.369,-4.218 10.319,-6.327 17.851,-6.327 7.431,0 13.354,2.109 17.775,6.327 4.418,4.218 6.628,9.591 6.628,16.118 0,6.628 -2.236,12.051 -6.703,16.269 -4.47,4.218 -10.371,6.327 -17.7,6.327 -7.332,0 -13.232,-2.109 -17.699,-6.327 -4.471,-4.218 -6.705,-9.641 -6.705,-16.269 z m 46.246,194.166 -43.684,0 0,-142.988 43.685,0 0,142.988 z"
         style="fill:#6e6e6e" />
    </g>
    <g
       style="fill:#ebeded;fill-opacity:1"
       id="g6526"
       transform="matrix(3,0,0,3,16.271186,26.576272)">
      <polygon
         transform="translate(0,-3)"
         id="polygon6528"
         points="0,26 0,22 16,26 32,22 32,26 16,30 "
         style="fill:#ebeded;fill-opacity:1" />
      <polygon
         id="polygon6530"
         points="32,14 32,18 16,22 0,18 0,14 16,18 "
         style="fill:#ebeded;fill-opacity:1" />
      <polygon
         transform="translate(0,3)"
         id="polygon6532"
         points="0,10 0,6 16,2 32,6 32,10 16,14 "
         style="fill:#ebeded;fill-opacity:1" />
    </g>
  </g>
  <defs
     id="defs7367" />
</svg>
