<?xml version="1.0" encoding="UTF-8" standalone="no"?>
<svg
   xmlns:dc="http://purl.org/dc/elements/1.1/"
   xmlns:cc="http://creativecommons.org/ns#"
   xmlns:rdf="http://www.w3.org/1999/02/22-rdf-syntax-ns#"
   xmlns:svg="http://www.w3.org/2000/svg"
   xmlns="http://www.w3.org/2000/svg"
   width="1080"
   height="1080"
   viewBox="0 0 285.75001 285.75001"
   version="1.1"
   id="svg8">
  <defs
     id="defs2">
    <marker
       style="overflow:visible"
       id="Arrow1Mend"
       refX="0"
       refY="0"
       orient="auto">
      <path
         transform="matrix(-0.4,0,0,-0.4,-4,0)"
         style="fill:#fa8f00;fill-opacity:1;fill-rule:evenodd;stroke:#fa8f00;stroke-width:1.00000003pt;stroke-opacity:1"
         d="M 0,0 5,-5 -12.5,0 5,5 Z"
         id="path5322" />
    </marker>
    <marker
       style="overflow:visible"
       id="Arrow1Mend-4"
       refX="0"
       refY="0"
       orient="auto">
      <path
         transform="matrix(-0.4,0,0,-0.4,-4,0)"
         style="fill:#fa8f00;fill-opacity:1;fill-rule:evenodd;stroke:#fa8f00;stroke-width:1.00000003pt;stroke-opacity:1"
         d="M 0,0 5,-5 -12.5,0 5,5 Z"
         id="path5322-5" />
    </marker>
  </defs>
  <metadata
     id="metadata5">
    <rdf:RDF>
      <cc:Work
         rdf:about="">
        <dc:format>image/svg+xml</dc:format>
        <dc:type
           rdf:resource="http://purl.org/dc/dcmitype/StillImage" />
        <dc:title></dc:title>
      </cc:Work>
    </rdf:RDF>
  </metadata>
  <rect
     style="fill:#c9ebfb;fill-opacity:1;stroke:none;stroke-width:18.2091732;stroke-linecap:round;stroke-miterlimit:4;stroke-dasharray:none;stroke-opacity:1;paint-order:markers stroke fill"
     id="rect7624"
     width="285.75"
     height="285.75"
     x="0.0084436871"
     y="-0.0035707499" />
  <g
     id="g152"
     transform="matrix(1.4552084,0,0,1.4552084,353.40658,-315.79146)" />
  <g
     id="g154"
     transform="matrix(1.4552084,0,0,1.4552084,353.40658,-315.79146)" />
  <g
     id="g156"
     transform="matrix(1.4552084,0,0,1.4552084,353.40658,-315.79146)" />
  <g
     id="g158"
     transform="matrix(1.4552084,0,0,1.4552084,353.40658,-315.79146)" />
  <g
     id="g160"
     transform="matrix(1.4552084,0,0,1.4552084,353.40658,-315.79146)" />
  <g
     id="g162"
     transform="matrix(1.4552084,0,0,1.4552084,353.40658,-315.79146)" />
  <g
     id="g164"
     transform="matrix(1.4552084,0,0,1.4552084,353.40658,-315.79146)" />
  <g
     id="g166"
     transform="matrix(1.4552084,0,0,1.4552084,353.40658,-315.79146)" />
  <g
     id="g168"
     transform="matrix(1.4552084,0,0,1.4552084,353.40658,-315.79146)" />
  <g
     id="g170"
     transform="matrix(1.4552084,0,0,1.4552084,353.40658,-315.79146)" />
  <g
     id="g172"
     transform="matrix(1.4552084,0,0,1.4552084,353.40658,-315.79146)" />
  <g
     id="g174"
     transform="matrix(1.4552084,0,0,1.4552084,353.40658,-315.79146)" />
  <g
     id="g176"
     transform="matrix(1.4552084,0,0,1.4552084,353.40658,-315.79146)" />
  <g
     id="g178"
     transform="matrix(1.4552084,0,0,1.4552084,353.40658,-315.79146)" />
  <g
     id="g180"
     transform="matrix(1.4552084,0,0,1.4552084,353.40658,-315.79146)" />
  <flowRoot
     style="font-style:normal;font-variant:normal;font-weight:500;font-stretch:normal;font-size:40px;line-height:1.25;font-family:Roboto;-inkscape-font-specification:'Roboto Medium';letter-spacing:0px;word-spacing:0px;fill:#000000;fill-opacity:1;stroke:none"
     id="flowRoot1041"
     xml:space="preserve"
     transform="matrix(1.4552084,0,0,1.4552084,353.40658,-315.79146)"><flowRegion
       id="flowRegion1043"><rect
         y="550.21259"
         x="1147.9391"
         height="40.43428"
         width="3.9448078"
         id="rect1045" /></flowRegion><flowPara
       id="flowPara1047" /></flowRoot>  <g
     transform="matrix(2.1166666,0,0,2.1166666,337.33047,15.256141)"
     id="g4220" />
  <g
     transform="matrix(2.1166666,0,0,2.1166666,337.33047,15.256141)"
     id="g4222" />
  <g
     transform="matrix(2.1166666,0,0,2.1166666,337.33047,15.256141)"
     id="g4224" />
  <g
     transform="matrix(2.1166666,0,0,2.1166666,337.33047,15.256141)"
     id="g4226" />
  <g
     transform="matrix(2.1166666,0,0,2.1166666,337.33047,15.256141)"
     id="g4228" />
  <g
     transform="matrix(2.1166666,0,0,2.1166666,337.33047,15.256141)"
     id="g4230" />
  <g
     transform="matrix(2.1166666,0,0,2.1166666,337.33047,15.256141)"
     id="g4232" />
  <g
     transform="matrix(2.1166666,0,0,2.1166666,337.33047,15.256141)"
     id="g4234" />
  <g
     transform="matrix(2.1166666,0,0,2.1166666,337.33047,15.256141)"
     id="g4236" />
  <g
     transform="matrix(2.1166666,0,0,2.1166666,337.33047,15.256141)"
     id="g4238" />
  <g
     transform="matrix(2.1166666,0,0,2.1166666,337.33047,15.256141)"
     id="g4240" />
  <g
     transform="matrix(2.1166666,0,0,2.1166666,337.33047,15.256141)"
     id="g4242" />
  <g
     transform="matrix(2.1166666,0,0,2.1166666,337.33047,15.256141)"
     id="g4244" />
  <g
     transform="matrix(2.1166666,0,0,2.1166666,337.33047,15.256141)"
     id="g4246" />
  <g
     transform="matrix(2.1166666,0,0,2.1166666,337.33047,15.256141)"
     id="g4248" />
  <g
     id="g4510"
     transform="matrix(3.7041666,0,0,3.7041666,306.29059,98.348938)" />
  <g
     id="g4512"
     transform="matrix(3.7041666,0,0,3.7041666,306.29059,98.348938)" />
  <g
     id="g4514"
     transform="matrix(3.7041666,0,0,3.7041666,306.29059,98.348938)" />
  <g
     id="g4516"
     transform="matrix(3.7041666,0,0,3.7041666,306.29059,98.348938)" />
  <g
     id="g4518"
     transform="matrix(3.7041666,0,0,3.7041666,306.29059,98.348938)" />
  <g
     id="g4520"
     transform="matrix(3.7041666,0,0,3.7041666,306.29059,98.348938)" />
  <g
     id="g4522"
     transform="matrix(3.7041666,0,0,3.7041666,306.29059,98.348938)" />
  <g
     id="g4524"
     transform="matrix(3.7041666,0,0,3.7041666,306.29059,98.348938)" />
  <g
     id="g4526"
     transform="matrix(3.7041666,0,0,3.7041666,306.29059,98.348938)" />
  <g
     id="g4528"
     transform="matrix(3.7041666,0,0,3.7041666,306.29059,98.348938)" />
  <g
     id="g4530"
     transform="matrix(3.7041666,0,0,3.7041666,306.29059,98.348938)" />
  <g
     id="g4532"
     transform="matrix(3.7041666,0,0,3.7041666,306.29059,98.348938)" />
  <g
     id="g4534"
     transform="matrix(3.7041666,0,0,3.7041666,306.29059,98.348938)" />
  <g
     id="g4536"
     transform="matrix(3.7041666,0,0,3.7041666,306.29059,98.348938)" />
  <g
     id="g4538"
     transform="matrix(3.7041666,0,0,3.7041666,306.29059,98.348938)" />
  <g
     transform="matrix(3.96875,0,0,3.96875,257.48733,88.070343)"
     id="g5408" />
  <g
     transform="matrix(3.96875,0,0,3.96875,257.48733,88.070343)"
     id="g5410" />
  <g
     transform="matrix(3.96875,0,0,3.96875,257.48733,88.070343)"
     id="g5412" />
  <g
     transform="matrix(3.96875,0,0,3.96875,257.48733,88.070343)"
     id="g5414" />
  <g
     transform="matrix(3.96875,0,0,3.96875,257.48733,88.070343)"
     id="g5416" />
  <g
     transform="matrix(3.96875,0,0,3.96875,257.48733,88.070343)"
     id="g5418" />
  <g
     transform="matrix(3.96875,0,0,3.96875,257.48733,88.070343)"
     id="g5420" />
  <g
     transform="matrix(3.96875,0,0,3.96875,257.48733,88.070343)"
     id="g5422" />
  <g
     transform="matrix(3.96875,0,0,3.96875,257.48733,88.070343)"
     id="g5424" />
  <g
     transform="matrix(3.96875,0,0,3.96875,257.48733,88.070343)"
     id="g5426" />
  <g
     transform="matrix(3.96875,0,0,3.96875,257.48733,88.070343)"
     id="g5428" />
  <g
     transform="matrix(3.96875,0,0,3.96875,257.48733,88.070343)"
     id="g5430" />
  <g
     transform="matrix(3.96875,0,0,3.96875,257.48733,88.070343)"
     id="g5432" />
  <g
     transform="matrix(3.96875,0,0,3.96875,257.48733,88.070343)"
     id="g5434" />
  <g
     transform="matrix(3.96875,0,0,3.96875,257.48733,88.070343)"
     id="g5436" />
  <g
     style="fill:#294270;fill-opacity:1"
     transform="matrix(0.79374999,0,0,0.79374999,21.651729,31.943093)"
     id="g12277">
    <g
       style="fill:#294270;fill-opacity:1"
       id="g12279">
      <path
         style="fill:#294270;fill-opacity:1"
         d="m 4.922,105.704 143.857,61.572 c 1.015,0.443 2.099,0.654 3.185,0.654 1.086,0 2.165,-0.222 3.185,-0.654 l 143.854,-61.572 c 3.037,-1.303 4.983,-4.311 4.914,-7.615 -0.068,-3.306 -2.136,-6.233 -5.221,-7.403 L 154.838,35.973 c -1.859,-0.709 -3.905,-0.709 -5.759,0 L 5.226,90.685 c -3.085,1.17 -5.152,4.103 -5.224,7.403 -0.068,3.299 1.88,6.318 4.92,7.616 z M 151.959,52.209 274.192,98.697 151.959,151.017 29.724,98.698 151.959,52.209 Z"
         id="path12281" />
      <path
         style="fill:#294270;fill-opacity:1"
         d="m 4.922,140.743 147.037,62.936 147.034,-62.936 c 4.118,-1.761 6.022,-6.523 4.261,-10.634 -1.756,-4.103 -6.502,-6.03 -10.631,-4.261 L 151.959,186.06 11.29,125.848 c -4.116,-1.764 -8.873,0.153 -10.634,4.261 -1.761,4.116 0.151,8.873 4.266,10.634 z"
         id="path12283" />
      <path
         style="fill:#294270;fill-opacity:1"
         d="m 4.922,173.14 147.037,62.938 147.034,-62.938 c 4.118,-1.761 6.022,-6.518 4.261,-10.631 -1.756,-4.103 -6.502,-6.033 -10.631,-4.261 L 151.959,218.46 11.29,158.249 c -4.116,-1.762 -8.873,0.152 -10.634,4.261 -1.761,4.113 0.151,8.869 4.266,10.63 z"
         id="path12285" />
      <path
         style="fill:#294270;fill-opacity:1"
         d="m 4.922,205.541 147.037,62.938 147.034,-62.938 c 4.118,-1.762 6.022,-6.519 4.261,-10.632 -1.756,-4.103 -6.502,-6.021 -10.631,-4.261 L 151.959,250.86 11.29,190.648 c -4.116,-1.761 -8.873,0.153 -10.634,4.261 -1.761,4.113 0.151,8.87 4.266,10.632 z"
         id="path12287" />
    </g>
  </g>
  <g
     transform="matrix(0.26458333,0,0,0.26458333,363.59753,95.404054)"
     id="g12289" />
  <g
     transform="matrix(0.26458333,0,0,0.26458333,363.59753,95.404054)"
     id="g12291" />
  <g
     transform="matrix(0.26458333,0,0,0.26458333,363.59753,95.404054)"
     id="g12293" />
  <g
     transform="matrix(0.26458333,0,0,0.26458333,363.59753,95.404054)"
     id="g12295" />
  <g
     transform="matrix(0.26458333,0,0,0.26458333,363.59753,95.404054)"
     id="g12297" />
  <g
     transform="matrix(0.26458333,0,0,0.26458333,363.59753,95.404054)"
     id="g12299" />
  <g
     transform="matrix(0.26458333,0,0,0.26458333,363.59753,95.404054)"
     id="g12301" />
  <g
     transform="matrix(0.26458333,0,0,0.26458333,363.59753,95.404054)"
     id="g12303" />
  <g
     transform="matrix(0.26458333,0,0,0.26458333,363.59753,95.404054)"
     id="g12305" />
  <g
     transform="matrix(0.26458333,0,0,0.26458333,363.59753,95.404054)"
     id="g12307" />
  <g
     transform="matrix(0.26458333,0,0,0.26458333,363.59753,95.404054)"
     id="g12309" />
  <g
     transform="matrix(0.26458333,0,0,0.26458333,363.59753,95.404054)"
     id="g12311" />
  <g
     transform="matrix(0.26458333,0,0,0.26458333,363.59753,95.404054)"
     id="g12313" />
  <g
     transform="matrix(0.26458333,0,0,0.26458333,363.59753,95.404054)"
     id="g12315" />
  <g
     transform="matrix(0.26458333,0,0,0.26458333,363.59753,95.404054)"
     id="g12317" />
</svg>
